# xmcd
#
# Track frame offsets:
#	150
#	10545
#	22207
#	33107
#	45185
#	56040
#	71517
#	83380
#	93555
#	106287
#	119467
#	130165
#	142922
#	153995
#	166055
#	179422
#	189552
#	201475
#	212710
#	227052
#	239872
#	257180
#	270920
#	281232
#	293115
#	304347
#	317155
#	326650
#
# Disc length: 4495 seconds
# Revision: 0
# Processed by: cddbd v1.5.2PL0 Copyright (c) Steve Scherf et al.
# Submitted via: dBpowerAMP V12.0
#
DISCID=93118d1c
DTITLE=Various Artist - Birth of Soul - Vol. 2
DYEAR=1900
DGENRE=R&B Vocal
TTITLE0=Ernestine Anderson - You're Not the Guy for Me
TTITLE1=Theola Kilgore - The Sound of My Man
TTITLE2=The Tams - Hey Girl Don't Bother Me
TTITLE3=Bobby ''Blue''  Bland - Ain't Nothing You Can Do
TTITLE4=Otis Redding - Pain in My Heart
TTITLE5=Garnet Mimms and The Enchanters - Cry Baby
TTITLE6=Jimmy Holiday - How Can I Forget
TTITLE7=Gloria Lynne - You Don't Have to Be Tower of Strength
TTITLE8=Jerry Butler - He Will Break Your Heart
TTITLE9=Ann Cole - Have Fun
TTITLE10=Bertha Tillman - Oh My Angel
TTITLE11=Etta James - Something's Got a Hold on Me
TTITLE12=Derek Martin - Daddy Rollin' Stone
TTITLE13=Charlie and Inez Foxx - Mockingbird
TTITLE14=Joe Henderson - Snap Your Fingers
TTITLE15=Sam Cooke - I'll Come Running Back to You
TTITLE16=Mary Johnson - Merry-Go-Round
TTITLE17=Little Anthony and The Imperials - Goin' Out of My Head
TTITLE18=Freddie Scott - Hey Girl
TTITLE19=Barbara Lynn - You'll Lose a Good Thing
TTITLE20=Little Johnny Taylor - Part Time Love
TTITLE21=Jimmy Hughes - I'm Qualified
TTITLE22=William Bell - Any Other Way
TTITLE23=J.J. Barnes - She Ain't Ready
TTITLE24=The Marvelows - I Do
TTITLE25=Claudine Clark - The Telephone Game
TTITLE26=Jan Bradley - Mama Didn't Lie
TTITLE27=The Impressions - Gypsy Woman
EXTD=
EXTT0=
EXTT1=
EXTT2=
EXTT3=
EXTT4=
EXTT5=
EXTT6=
EXTT7=
EXTT8=
EXTT9=
EXTT10=
EXTT11=
EXTT12=
EXTT13=
EXTT14=
EXTT15=
EXTT16=
EXTT17=
EXTT18=
EXTT19=
EXTT20=
EXTT21=
EXTT22=
EXTT23=
EXTT24=
EXTT25=
EXTT26=
EXTT27=
PLAYORDER=
